<?xml version="1.0" encoding="iso-8859-1"?>
<!-- Generator: Adobe Illustrator 19.0.0, SVG Export Plug-In . SVG Version: 6.00 Build 0)  -->
<svg version="1.1" id="Capa_1" xmlns="http://www.w3.org/2000/svg" xmlns:xlink="http://www.w3.org/1999/xlink" x="0px" y="0px"
	 viewBox="0 0 512 512" style="enable-background:new 0 0 512 512;" xml:space="preserve">
<g>
	<g>
		<path d="M440.44,78.485l-51.856,56.124c30.144,32.98,47.193,76.456,47.193,121.392c0,99.129-80.647,179.776-179.776,179.776
			S76.224,355.129,76.224,256c0-25.308,5.158-49.783,15.332-72.749c9.823-22.177,23.817-41.859,41.591-58.503l20.506,21.898
			c-30.585,28.639-47.429,67.475-47.429,109.354c0,82.587,67.189,149.776,149.776,149.776S405.776,338.587,405.776,256
			c0-36.592-13.574-72.022-37.639-99.262l-30.913,33.457c14.956,18.503,23.331,41.795,23.331,65.805
			c0,57.651-46.903,104.555-104.555,104.555S151.445,313.651,151.445,256c0-24.933,8.923-49.079,25.125-67.992l22.783,19.518
			c-11.548,13.48-17.908,30.695-17.908,48.475c0,41.109,33.445,74.555,74.555,74.555s74.555-33.445,74.555-74.555
			c0-15.911-4.888-30.921-13.961-43.477l-35.645,38.578c0.31,1.586,0.476,3.222,0.476,4.899c0,14.042-11.383,25.426-25.426,25.426
			c-14.042,0-25.426-11.383-25.426-25.426c0-14.042,11.383-25.426,25.426-25.426c0.985,0,1.955,0.062,2.911,0.171L418.428,58.099
			C372.75,20.471,315.949,0,256,0C187.62,0,123.333,26.629,74.98,74.98C26.629,123.333,0,187.62,0,256s26.629,132.667,74.98,181.02
			C123.333,485.371,187.62,512,256,512s132.667-26.629,181.02-74.98C485.371,388.667,512,324.38,512,256
			C512,189.255,486.618,126.418,440.44,78.485z M256,71.772c11.424,0,20.685,9.261,20.685,20.685
			c0,11.424-9.261,20.685-20.685,20.685s-20.685-9.261-20.685-20.685C235.315,81.033,244.576,71.772,256,71.772z"/>
	</g>
</g>
<g>
</g>
<g>
</g>
<g>
</g>
<g>
</g>
<g>
</g>
<g>
</g>
<g>
</g>
<g>
</g>
<g>
</g>
<g>
</g>
<g>
</g>
<g>
</g>
<g>
</g>
<g>
</g>
<g>
</g>
</svg>
