<?xml version="1.0" encoding="iso-8859-1"?>
<!-- Generator: Adobe Illustrator 18.1.1, SVG Export Plug-In . SVG Version: 6.00 Build 0)  -->
<svg version="1.1" id="Capa_1" xmlns="http://www.w3.org/2000/svg" xmlns:xlink="http://www.w3.org/1999/xlink" x="0px" y="0px"
	 viewBox="0 0 611.999 611.999" style="enable-background:new 0 0 611.999 611.999;" xml:space="preserve">
<g>
	<g>
		<path d="M99.57,296.332c0-5.645,0.236-11.254,0.683-16.826h-23.49c-18.978,0-34.362,15.385-34.362,34.362v66.777
			c0,18.978,15.384,34.361,34.362,34.361H99.57V296.332z"/>
		<path d="M535.236,279.506h-23.491c0.447,5.572,0.683,11.181,0.683,16.826v118.673h22.807c18.978,0,34.362-15.384,34.362-34.361
			v-66.776C569.598,294.891,554.213,279.506,535.236,279.506z"/>
		<path d="M486.117,496.077v-81.276V296.332c0-5.572-0.266-11.081-0.762-16.524c-7.678-84.397-73.564-151.969-157.186-162.234
			v-13.252V91.086v-7.154c13.57-7.723,22.728-22.306,22.728-39.036C350.896,20.101,330.795,0,305.999,0
			c-24.795,0-44.896,20.101-44.896,44.897c0,16.731,9.158,31.312,22.727,39.036v7.154v13.236v13.252
			c-83.645,10.268-149.544,77.875-157.193,162.303c-0.491,5.42-0.756,10.906-0.756,16.455V414.73v81.346h99.473v-38.269
			c0-10.899,8.835-19.734,19.734-19.734h121.82c10.899,0,19.734,8.836,19.734,19.734v38.269L486.117,496.077L486.117,496.077z
			 M219.145,387.055c-27.067,0-49.008-21.942-49.008-49.009s21.942-49.008,49.008-49.008s49.008,21.941,49.008,49.008
			C268.153,365.113,246.212,387.055,219.145,387.055z M350.896,338.047c0-27.066,21.942-49.008,49.008-49.008
			s49.009,21.941,49.009,49.008c0,27.067-21.942,49.009-49.009,49.009S350.896,365.113,350.896,338.047z"/>
		<path d="M514.952,522.37h-2.523H386.644H225.356H99.57h-2.523c-9.182,0-16.627,7.444-16.627,16.627v56.376
			c0,9.183,7.444,16.627,16.627,16.627h417.904c9.182,0,16.627-7.444,16.627-16.627v-56.376
			C531.579,529.814,524.135,522.37,514.952,522.37z"/>
	</g>
</g>
<g>
</g>
<g>
</g>
<g>
</g>
<g>
</g>
<g>
</g>
<g>
</g>
<g>
</g>
<g>
</g>
<g>
</g>
<g>
</g>
<g>
</g>
<g>
</g>
<g>
</g>
<g>
</g>
<g>
</g>
</svg>
